<mxfile host="app.diagrams.net" agent="Mozilla/5.0 (Windows NT 10.0; Win64; x64) AppleWebKit/537.36 (KHTML, like Gecko) Chrome/140.0.0.0 Safari/537.36" version="28.2.7">
  <diagram name="PÃ¡gina-1" id="YiEBSTkyKW7Ath2D2Qnw">
    <mxGraphModel grid="1" page="1" gridSize="10" guides="1" tooltips="1" connect="1" arrows="1" fold="1" pageScale="1" pageWidth="827" pageHeight="1169" math="0" shadow="0">
      <root>
        <mxCell id="0" />
        <mxCell id="1" parent="0" />
        <mxCell id="aTwCVyl__jBA9_95GRgf-14" style="edgeStyle=orthogonalEdgeStyle;rounded=0;orthogonalLoop=1;jettySize=auto;html=1;exitX=0.25;exitY=1;exitDx=0;exitDy=0;entryX=0.25;entryY=0;entryDx=0;entryDy=0;" edge="1" parent="1" source="aTwCVyl__jBA9_95GRgf-3" target="aTwCVyl__jBA9_95GRgf-7">
          <mxGeometry relative="1" as="geometry" />
        </mxCell>
        <mxCell id="aTwCVyl__jBA9_95GRgf-17" style="edgeStyle=orthogonalEdgeStyle;rounded=0;orthogonalLoop=1;jettySize=auto;html=1;exitX=1;exitY=0.75;exitDx=0;exitDy=0;entryX=0;entryY=1;entryDx=0;entryDy=0;" edge="1" parent="1" source="aTwCVyl__jBA9_95GRgf-3" target="aTwCVyl__jBA9_95GRgf-6">
          <mxGeometry relative="1" as="geometry" />
        </mxCell>
        <mxCell id="aTwCVyl__jBA9_95GRgf-3" value="Sistema Web de Eventos Internacionales&amp;nbsp;" style="rounded=0;whiteSpace=wrap;html=1;" vertex="1" parent="1">
          <mxGeometry x="400" y="210" width="120" height="60" as="geometry" />
        </mxCell>
        <mxCell id="aTwCVyl__jBA9_95GRgf-10" style="edgeStyle=orthogonalEdgeStyle;rounded=0;orthogonalLoop=1;jettySize=auto;html=1;exitX=0.5;exitY=1;exitDx=0;exitDy=0;" edge="1" parent="1" source="aTwCVyl__jBA9_95GRgf-5" target="aTwCVyl__jBA9_95GRgf-9">
          <mxGeometry relative="1" as="geometry" />
        </mxCell>
        <mxCell id="aTwCVyl__jBA9_95GRgf-12" style="edgeStyle=orthogonalEdgeStyle;rounded=0;orthogonalLoop=1;jettySize=auto;html=1;exitX=1;exitY=0;exitDx=0;exitDy=0;entryX=0;entryY=0.25;entryDx=0;entryDy=0;" edge="1" parent="1" source="aTwCVyl__jBA9_95GRgf-5" target="aTwCVyl__jBA9_95GRgf-3">
          <mxGeometry relative="1" as="geometry" />
        </mxCell>
        <mxCell id="aTwCVyl__jBA9_95GRgf-13" style="edgeStyle=orthogonalEdgeStyle;rounded=0;orthogonalLoop=1;jettySize=auto;html=1;exitX=1;exitY=1;exitDx=0;exitDy=0;entryX=0;entryY=0.75;entryDx=0;entryDy=0;endArrow=none;endFill=0;startArrow=classic;startFill=1;" edge="1" parent="1" source="aTwCVyl__jBA9_95GRgf-5" target="aTwCVyl__jBA9_95GRgf-3">
          <mxGeometry relative="1" as="geometry" />
        </mxCell>
        <mxCell id="aTwCVyl__jBA9_95GRgf-5" value="Usuario/Cliente&amp;nbsp;" style="ellipse;whiteSpace=wrap;html=1;aspect=fixed;" vertex="1" parent="1">
          <mxGeometry x="120" y="200" width="80" height="80" as="geometry" />
        </mxCell>
        <mxCell id="aTwCVyl__jBA9_95GRgf-16" style="edgeStyle=orthogonalEdgeStyle;rounded=0;orthogonalLoop=1;jettySize=auto;html=1;exitX=0;exitY=0;exitDx=0;exitDy=0;entryX=1;entryY=0.25;entryDx=0;entryDy=0;" edge="1" parent="1" source="aTwCVyl__jBA9_95GRgf-6" target="aTwCVyl__jBA9_95GRgf-3">
          <mxGeometry relative="1" as="geometry" />
        </mxCell>
        <mxCell id="aTwCVyl__jBA9_95GRgf-6" value="Gerente" style="ellipse;whiteSpace=wrap;html=1;aspect=fixed;" vertex="1" parent="1">
          <mxGeometry x="720" y="200" width="80" height="80" as="geometry" />
        </mxCell>
        <mxCell id="aTwCVyl__jBA9_95GRgf-15" style="edgeStyle=orthogonalEdgeStyle;rounded=0;orthogonalLoop=1;jettySize=auto;html=1;exitX=0.75;exitY=0;exitDx=0;exitDy=0;entryX=0.75;entryY=1;entryDx=0;entryDy=0;" edge="1" parent="1" source="aTwCVyl__jBA9_95GRgf-7" target="aTwCVyl__jBA9_95GRgf-3">
          <mxGeometry relative="1" as="geometry" />
        </mxCell>
        <mxCell id="aTwCVyl__jBA9_95GRgf-7" value="Transacciones" style="rounded=0;whiteSpace=wrap;html=1;" vertex="1" parent="1">
          <mxGeometry x="400" y="400" width="120" height="60" as="geometry" />
        </mxCell>
        <mxCell id="aTwCVyl__jBA9_95GRgf-9" value="Confirmacion de tickets y pago" style="rounded=0;whiteSpace=wrap;html=1;" vertex="1" parent="1">
          <mxGeometry x="100" y="400" width="120" height="60" as="geometry" />
        </mxCell>
        <mxCell id="aTwCVyl__jBA9_95GRgf-18" value="DFD nivel 0" style="text;html=1;whiteSpace=wrap;strokeColor=none;fillColor=none;align=center;verticalAlign=middle;rounded=0;" vertex="1" parent="1">
          <mxGeometry x="330" y="120" width="60" height="30" as="geometry" />
        </mxCell>
        <mxCell id="aTwCVyl__jBA9_95GRgf-26" style="edgeStyle=orthogonalEdgeStyle;rounded=0;orthogonalLoop=1;jettySize=auto;html=1;exitX=0.25;exitY=1;exitDx=0;exitDy=0;entryX=0;entryY=0;entryDx=0;entryDy=0;" edge="1" parent="1" source="aTwCVyl__jBA9_95GRgf-19" target="aTwCVyl__jBA9_95GRgf-21">
          <mxGeometry relative="1" as="geometry" />
        </mxCell>
        <mxCell id="aTwCVyl__jBA9_95GRgf-19" value="Sistema Web de eventos int" style="rounded=0;whiteSpace=wrap;html=1;" vertex="1" parent="1">
          <mxGeometry x="354" y="-910" width="120" height="60" as="geometry" />
        </mxCell>
        <mxCell id="aTwCVyl__jBA9_95GRgf-28" style="edgeStyle=orthogonalEdgeStyle;rounded=0;orthogonalLoop=1;jettySize=auto;html=1;exitX=1;exitY=0.5;exitDx=0;exitDy=0;entryX=0;entryY=0.5;entryDx=0;entryDy=0;" edge="1" parent="1" source="aTwCVyl__jBA9_95GRgf-20" target="aTwCVyl__jBA9_95GRgf-21">
          <mxGeometry relative="1" as="geometry" />
        </mxCell>
        <mxCell id="aTwCVyl__jBA9_95GRgf-20" value="Usuario&lt;div&gt;(registro,&amp;nbsp;&lt;/div&gt;&lt;div&gt;tickets)&lt;/div&gt;" style="ellipse;whiteSpace=wrap;html=1;aspect=fixed;" vertex="1" parent="1">
          <mxGeometry x="120" y="-840" width="80" height="80" as="geometry" />
        </mxCell>
        <mxCell id="aTwCVyl__jBA9_95GRgf-27" style="edgeStyle=orthogonalEdgeStyle;rounded=0;orthogonalLoop=1;jettySize=auto;html=1;exitX=1;exitY=0;exitDx=0;exitDy=0;entryX=0.75;entryY=1;entryDx=0;entryDy=0;" edge="1" parent="1" source="aTwCVyl__jBA9_95GRgf-21" target="aTwCVyl__jBA9_95GRgf-19">
          <mxGeometry relative="1" as="geometry" />
        </mxCell>
        <mxCell id="aTwCVyl__jBA9_95GRgf-30" style="edgeStyle=orthogonalEdgeStyle;rounded=0;orthogonalLoop=1;jettySize=auto;html=1;exitX=0.5;exitY=1;exitDx=0;exitDy=0;entryX=0.5;entryY=0;entryDx=0;entryDy=0;" edge="1" parent="1" source="aTwCVyl__jBA9_95GRgf-21" target="aTwCVyl__jBA9_95GRgf-23">
          <mxGeometry relative="1" as="geometry" />
        </mxCell>
        <mxCell id="aTwCVyl__jBA9_95GRgf-21" value="Gestion de usuarios" style="ellipse;whiteSpace=wrap;html=1;aspect=fixed;" vertex="1" parent="1">
          <mxGeometry x="360" y="-760" width="80" height="80" as="geometry" />
        </mxCell>
        <mxCell id="aTwCVyl__jBA9_95GRgf-29" style="edgeStyle=orthogonalEdgeStyle;rounded=0;orthogonalLoop=1;jettySize=auto;html=1;exitX=0;exitY=0.5;exitDx=0;exitDy=0;" edge="1" parent="1" source="aTwCVyl__jBA9_95GRgf-22" target="aTwCVyl__jBA9_95GRgf-21">
          <mxGeometry relative="1" as="geometry" />
        </mxCell>
        <mxCell id="aTwCVyl__jBA9_95GRgf-22" value="Gerente" style="ellipse;whiteSpace=wrap;html=1;aspect=fixed;" vertex="1" parent="1">
          <mxGeometry x="640" y="-840" width="80" height="80" as="geometry" />
        </mxCell>
        <mxCell id="aTwCVyl__jBA9_95GRgf-31" style="edgeStyle=orthogonalEdgeStyle;rounded=0;orthogonalLoop=1;jettySize=auto;html=1;exitX=1;exitY=0.5;exitDx=0;exitDy=0;entryX=0;entryY=0.5;entryDx=0;entryDy=0;" edge="1" parent="1" source="aTwCVyl__jBA9_95GRgf-23" target="aTwCVyl__jBA9_95GRgf-24">
          <mxGeometry relative="1" as="geometry" />
        </mxCell>
        <mxCell id="aTwCVyl__jBA9_95GRgf-23" value="Gestion de eventos" style="ellipse;whiteSpace=wrap;html=1;aspect=fixed;" vertex="1" parent="1">
          <mxGeometry x="360" y="-560" width="80" height="80" as="geometry" />
        </mxCell>
        <mxCell id="aTwCVyl__jBA9_95GRgf-32" style="edgeStyle=orthogonalEdgeStyle;rounded=0;orthogonalLoop=1;jettySize=auto;html=1;exitX=1;exitY=0.5;exitDx=0;exitDy=0;entryX=0;entryY=0.5;entryDx=0;entryDy=0;" edge="1" parent="1" source="aTwCVyl__jBA9_95GRgf-24" target="aTwCVyl__jBA9_95GRgf-25">
          <mxGeometry relative="1" as="geometry" />
        </mxCell>
        <mxCell id="aTwCVyl__jBA9_95GRgf-24" value="Gestion de tickets" style="ellipse;whiteSpace=wrap;html=1;aspect=fixed;" vertex="1" parent="1">
          <mxGeometry x="560" y="-560" width="80" height="80" as="geometry" />
        </mxCell>
        <mxCell id="aTwCVyl__jBA9_95GRgf-25" value="Reportes y ventas" style="ellipse;whiteSpace=wrap;html=1;aspect=fixed;" vertex="1" parent="1">
          <mxGeometry x="760" y="-560" width="80" height="80" as="geometry" />
        </mxCell>
        <mxCell id="aTwCVyl__jBA9_95GRgf-33" value="Nivel 1&amp;nbsp;" style="text;html=1;whiteSpace=wrap;strokeColor=none;fillColor=none;align=center;verticalAlign=middle;rounded=0;" vertex="1" parent="1">
          <mxGeometry x="460" y="-1040" width="60" height="30" as="geometry" />
        </mxCell>
        <mxCell id="aTwCVyl__jBA9_95GRgf-52" style="edgeStyle=orthogonalEdgeStyle;rounded=0;orthogonalLoop=1;jettySize=auto;html=1;entryX=0.5;entryY=0;entryDx=0;entryDy=0;" edge="1" parent="1" source="aTwCVyl__jBA9_95GRgf-39" target="aTwCVyl__jBA9_95GRgf-41">
          <mxGeometry relative="1" as="geometry" />
        </mxCell>
        <mxCell id="aTwCVyl__jBA9_95GRgf-39" value="Usuario&amp;nbsp;" style="rounded=0;whiteSpace=wrap;html=1;" vertex="1" parent="1">
          <mxGeometry x="1241" y="-1120" width="120" height="60" as="geometry" />
        </mxCell>
        <mxCell id="aTwCVyl__jBA9_95GRgf-55" style="edgeStyle=orthogonalEdgeStyle;rounded=0;orthogonalLoop=1;jettySize=auto;html=1;exitX=0.5;exitY=1;exitDx=0;exitDy=0;entryX=0.5;entryY=0;entryDx=0;entryDy=0;" edge="1" parent="1" source="aTwCVyl__jBA9_95GRgf-40" target="aTwCVyl__jBA9_95GRgf-42">
          <mxGeometry relative="1" as="geometry" />
        </mxCell>
        <mxCell id="aTwCVyl__jBA9_95GRgf-40" value="Gerente" style="rounded=0;whiteSpace=wrap;html=1;" vertex="1" parent="1">
          <mxGeometry x="1800" y="-1120" width="120" height="60" as="geometry" />
        </mxCell>
        <mxCell id="aTwCVyl__jBA9_95GRgf-53" style="edgeStyle=orthogonalEdgeStyle;rounded=0;orthogonalLoop=1;jettySize=auto;html=1;exitX=0.5;exitY=1;exitDx=0;exitDy=0;entryX=0.5;entryY=0;entryDx=0;entryDy=0;" edge="1" parent="1" source="aTwCVyl__jBA9_95GRgf-41" target="aTwCVyl__jBA9_95GRgf-43">
          <mxGeometry relative="1" as="geometry" />
        </mxCell>
        <mxCell id="aTwCVyl__jBA9_95GRgf-41" value="Registro de&amp;nbsp;&lt;div&gt;Usuario&lt;/div&gt;" style="ellipse;whiteSpace=wrap;html=1;aspect=fixed;" vertex="1" parent="1">
          <mxGeometry x="1251" y="-990" width="100" height="100" as="geometry" />
        </mxCell>
        <mxCell id="aTwCVyl__jBA9_95GRgf-56" style="edgeStyle=orthogonalEdgeStyle;rounded=0;orthogonalLoop=1;jettySize=auto;html=1;exitX=0.5;exitY=1;exitDx=0;exitDy=0;" edge="1" parent="1" source="aTwCVyl__jBA9_95GRgf-42" target="aTwCVyl__jBA9_95GRgf-44">
          <mxGeometry relative="1" as="geometry" />
        </mxCell>
        <mxCell id="aTwCVyl__jBA9_95GRgf-42" value="Crear/Editar Eventos" style="ellipse;whiteSpace=wrap;html=1;aspect=fixed;" vertex="1" parent="1">
          <mxGeometry x="1810" y="-990" width="100" height="100" as="geometry" />
        </mxCell>
        <mxCell id="aTwCVyl__jBA9_95GRgf-50" style="edgeStyle=orthogonalEdgeStyle;rounded=0;orthogonalLoop=1;jettySize=auto;html=1;startArrow=classic;startFill=1;" edge="1" parent="1" source="aTwCVyl__jBA9_95GRgf-43" target="aTwCVyl__jBA9_95GRgf-44">
          <mxGeometry relative="1" as="geometry" />
        </mxCell>
        <mxCell id="aTwCVyl__jBA9_95GRgf-54" style="edgeStyle=orthogonalEdgeStyle;rounded=0;orthogonalLoop=1;jettySize=auto;html=1;exitX=0.5;exitY=1;exitDx=0;exitDy=0;entryX=0;entryY=0.5;entryDx=0;entryDy=0;" edge="1" parent="1" source="aTwCVyl__jBA9_95GRgf-43" target="aTwCVyl__jBA9_95GRgf-45">
          <mxGeometry relative="1" as="geometry" />
        </mxCell>
        <mxCell id="aTwCVyl__jBA9_95GRgf-43" value="Inicio de sesion&amp;nbsp;" style="ellipse;whiteSpace=wrap;html=1;aspect=fixed;" vertex="1" parent="1">
          <mxGeometry x="1251" y="-790" width="100" height="100" as="geometry" />
        </mxCell>
        <mxCell id="aTwCVyl__jBA9_95GRgf-44" value="Mostar Eventos&amp;nbsp;" style="ellipse;whiteSpace=wrap;html=1;aspect=fixed;" vertex="1" parent="1">
          <mxGeometry x="1810" y="-790" width="100" height="100" as="geometry" />
        </mxCell>
        <mxCell id="aTwCVyl__jBA9_95GRgf-51" style="edgeStyle=orthogonalEdgeStyle;rounded=0;orthogonalLoop=1;jettySize=auto;html=1;entryX=0;entryY=0.5;entryDx=0;entryDy=0;startArrow=classic;startFill=1;" edge="1" parent="1" source="aTwCVyl__jBA9_95GRgf-45" target="aTwCVyl__jBA9_95GRgf-46">
          <mxGeometry relative="1" as="geometry" />
        </mxCell>
        <mxCell id="aTwCVyl__jBA9_95GRgf-45" value="Actualizar perfil" style="ellipse;whiteSpace=wrap;html=1;aspect=fixed;" vertex="1" parent="1">
          <mxGeometry x="1361" y="-600" width="100" height="100" as="geometry" />
        </mxCell>
        <mxCell id="aTwCVyl__jBA9_95GRgf-58" style="edgeStyle=orthogonalEdgeStyle;rounded=0;orthogonalLoop=1;jettySize=auto;html=1;exitX=0.5;exitY=1;exitDx=0;exitDy=0;entryX=0.5;entryY=0;entryDx=0;entryDy=0;" edge="1" parent="1" source="aTwCVyl__jBA9_95GRgf-46" target="aTwCVyl__jBA9_95GRgf-47">
          <mxGeometry relative="1" as="geometry" />
        </mxCell>
        <mxCell id="aTwCVyl__jBA9_95GRgf-46" value="Seleccionar Evento y cantidad" style="ellipse;whiteSpace=wrap;html=1;aspect=fixed;" vertex="1" parent="1">
          <mxGeometry x="1700" y="-600" width="100" height="100" as="geometry" />
        </mxCell>
        <mxCell id="aTwCVyl__jBA9_95GRgf-59" style="edgeStyle=orthogonalEdgeStyle;rounded=0;orthogonalLoop=1;jettySize=auto;html=1;exitX=1;exitY=0.5;exitDx=0;exitDy=0;entryX=0;entryY=0.5;entryDx=0;entryDy=0;" edge="1" parent="1" source="aTwCVyl__jBA9_95GRgf-47" target="aTwCVyl__jBA9_95GRgf-48">
          <mxGeometry relative="1" as="geometry" />
        </mxCell>
        <mxCell id="aTwCVyl__jBA9_95GRgf-47" value="Procesar pago" style="ellipse;whiteSpace=wrap;html=1;aspect=fixed;" vertex="1" parent="1">
          <mxGeometry x="1700" y="-390" width="100" height="100" as="geometry" />
        </mxCell>
        <mxCell id="aTwCVyl__jBA9_95GRgf-60" style="edgeStyle=orthogonalEdgeStyle;rounded=0;orthogonalLoop=1;jettySize=auto;html=1;entryX=0;entryY=0.5;entryDx=0;entryDy=0;" edge="1" parent="1" source="aTwCVyl__jBA9_95GRgf-48" target="aTwCVyl__jBA9_95GRgf-49">
          <mxGeometry relative="1" as="geometry" />
        </mxCell>
        <mxCell id="aTwCVyl__jBA9_95GRgf-48" value="Confirmar el pago" style="ellipse;whiteSpace=wrap;html=1;aspect=fixed;" vertex="1" parent="1">
          <mxGeometry x="1920" y="-390" width="100" height="100" as="geometry" />
        </mxCell>
        <mxCell id="aTwCVyl__jBA9_95GRgf-63" style="edgeStyle=orthogonalEdgeStyle;rounded=0;orthogonalLoop=1;jettySize=auto;html=1;" edge="1" parent="1" source="aTwCVyl__jBA9_95GRgf-49" target="aTwCVyl__jBA9_95GRgf-61">
          <mxGeometry relative="1" as="geometry" />
        </mxCell>
        <mxCell id="aTwCVyl__jBA9_95GRgf-49" value="generar tickets" style="ellipse;whiteSpace=wrap;html=1;aspect=fixed;" vertex="1" parent="1">
          <mxGeometry x="2140" y="-390" width="100" height="100" as="geometry" />
        </mxCell>
        <mxCell id="aTwCVyl__jBA9_95GRgf-57" style="edgeStyle=orthogonalEdgeStyle;rounded=0;orthogonalLoop=1;jettySize=auto;html=1;exitX=0.5;exitY=1;exitDx=0;exitDy=0;entryX=1;entryY=0.5;entryDx=0;entryDy=0;" edge="1" parent="1" source="aTwCVyl__jBA9_95GRgf-44" target="aTwCVyl__jBA9_95GRgf-46">
          <mxGeometry relative="1" as="geometry" />
        </mxCell>
        <mxCell id="aTwCVyl__jBA9_95GRgf-64" style="edgeStyle=orthogonalEdgeStyle;rounded=0;orthogonalLoop=1;jettySize=auto;html=1;entryX=0;entryY=0.5;entryDx=0;entryDy=0;" edge="1" parent="1" source="aTwCVyl__jBA9_95GRgf-61" target="aTwCVyl__jBA9_95GRgf-62">
          <mxGeometry relative="1" as="geometry" />
        </mxCell>
        <mxCell id="aTwCVyl__jBA9_95GRgf-61" value="Consultar ventas&amp;nbsp;" style="ellipse;whiteSpace=wrap;html=1;aspect=fixed;" vertex="1" parent="1">
          <mxGeometry x="2360" y="-390" width="100" height="100" as="geometry" />
        </mxCell>
        <mxCell id="aTwCVyl__jBA9_95GRgf-62" value="Generar Reportes&amp;nbsp;" style="ellipse;whiteSpace=wrap;html=1;aspect=fixed;" vertex="1" parent="1">
          <mxGeometry x="2330" y="-790" width="100" height="100" as="geometry" />
        </mxCell>
        <mxCell id="aTwCVyl__jBA9_95GRgf-65" value="Nivel 2" style="text;html=1;whiteSpace=wrap;strokeColor=none;fillColor=none;align=center;verticalAlign=middle;rounded=0;" vertex="1" parent="1">
          <mxGeometry x="1500" y="-1120" width="60" height="30" as="geometry" />
        </mxCell>
      </root>
    </mxGraphModel>
  </diagram>
</mxfile>
